<svg viewBox="-31 0 512 512.00027" xmlns="http://www.w3.org/2000/svg" width="80px"
height="80px"><path
  d="m274.921875 160.027344c-2.519531 0-5.003906-1.140625-6.632813-3.3125-2.742187-3.65625-2.003906-8.847656 1.660157-11.59375l33.125-24.84375c3.65625-2.742188 8.847656-2.003906 11.59375 1.65625 2.742187 3.65625 2.003906 8.847656-1.65625 11.59375l-33.128907 24.84375c-1.488281 1.117187-3.230468 1.65625-4.960937 1.65625zm0 0"
  fill="#615d7e"/><path
  d="m308.042969 160.027344h-33.128907c-4.574218 0-8.28125-3.707032-8.28125-8.28125 0-4.570313 3.707032-8.28125 8.28125-8.28125h33.128907c4.570312 0 8.28125 3.710937 8.28125 8.28125 0 4.574218-3.710938 8.28125-8.28125 8.28125zm0 0"
  fill="#565275"/><path
  d="m225.226562 102.058594c-27.445312 0-49.691406 22.246094-49.691406 49.6875v24.847656c0 27.441406 22.246094 49.6875 49.691406 49.6875 27.441407 0 49.6875-22.246094 49.6875-49.6875v-24.847656c0-27.441406-22.246093-49.6875-49.6875-49.6875zm0 0"
  fill="#ffead3"/><path
  d="m192.101562 176.59375v-24.847656c0-24.617188 17.90625-45.042969 41.40625-48.988282-2.695312-.453124-5.457031-.699218-8.28125-.699218-27.445312 0-49.691406 22.246094-49.691406 49.6875v24.847656c0 27.441406 22.246094 49.6875 49.691406 49.6875 2.824219 0 5.585938-.246094 8.28125-.699219-23.5-3.945312-41.40625-24.371093-41.40625-48.988281zm0 0"
  fill="#ffdfbd"/><path d="m225.226562 226.28125c27.441407 0 49.6875-22.246094 49.6875-49.6875h-99.378906c0 27.441406 22.25 49.6875 49.691406 49.6875zm0 0" fill="#615d7e"/><path d="m192.101562 176.59375h-16.566406c0 27.441406 22.246094 49.6875 49.691406 49.6875 2.824219 0 5.585938-.246094 8.28125-.699219-23.5-3.945312-41.40625-24.371093-41.40625-48.988281zm0 0" fill="#565275"/><path d="m225.226562 102.058594c-27.445312 0-49.691406 22.246094-49.691406 49.6875v8.28125h99.378906v-8.28125c0-27.441406-22.246093-49.6875-49.6875-49.6875zm0 0" fill="#615d7e"/><path d="m233.507812 102.757812c-2.695312-.453124-5.457031-.699218-8.28125-.699218-27.445312 0-49.691406 22.246094-49.691406 49.6875v8.28125h16.566406v-8.28125c0-24.617188 17.90625-45.042969 41.40625-48.988282zm0 0" fill="#565275"/><path
  d="m310.359375 472.890625-19.089844-82.839844c-.867187-3.757812-4.214843-6.417969-8.070312-6.417969h-115.941407c-3.859374 0-7.207031 2.660157-8.070312 6.417969l-19.09375 82.839844c-2.15625 5.792969-2.402344 12.207031-.691406 18.136719 3.417968 11.851562 13.984375 20.261718 26.296875 20.929687.503906.027344 1.007812.042969 1.507812.042969 11.660157 0 22.601563-7.324219 26.960938-18.226562l24.179687-60.453126h13.757813l24.179687 60.453126c4.546875 11.371093 16.277344 18.847656 28.46875 18.183593 12.3125-.667969 22.878906-9.078125 26.296875-20.925781 1.714844-5.933594 1.464844-12.347656-.691406-18.140625zm0 0"
  fill="#565275"/><path
  d="m160.101562 491.027344c-1.714843-5.929688-1.464843-12.34375.691407-18.136719l19.089843-82.835937c.867188-3.761719 4.210938-6.421876 8.070313-6.421876h-20.699219c-3.855468 0-7.203125 2.660157-8.070312 6.421876l-19.089844 82.835937c-2.15625 5.792969-2.40625 12.207031-.691406 18.136719 3.414062 11.851562 13.984375 20.261718 26.296875 20.929687.503906.027344 1.007812.042969 1.507812.042969 3.5625 0 7.054688-.691406 10.3125-1.949219-8.300781-3.214843-14.863281-10.15625-17.417969-19.023437zm0 0"
  fill="#4b466c"/><path
  d="m287.285156 511.699219c.683594-.097657 1.363282-.210938 2.03125-.355469.015625-.003906.03125-.007812.046875-.011719 1.472657-.324219 2.902344-.757812 4.285157-1.292969-7.414063-2.863281-13.636719-8.691406-16.664063-16.265624l-24.183594-60.453126h-20.695312l24.179687 60.453126c4.546875 11.371093 16.277344 18.847656 28.46875 18.183593.773438-.042969 1.542969-.113281 2.300782-.21875.078124-.007812.15625-.027343.230468-.039062zm0 0"
  fill="#4b466c"/><path
  d="m76.808594 250.523438-35.085938-27.289063c-10.816406-8.410156-26.457031-6.453125-34.867187 4.359375-8.40625 10.8125-6.453125 26.453125 4.359375 34.863281l35.230468 27.398438c1.457032 1.136719 3.25 1.742187 5.082032 1.742187.347656 0 .699218-.019531 1.050781-.066406 2.183594-.277344 4.167969-1.417969 5.511719-3.164062l20.199218-26.257813c2.777344-3.609375 2.117188-8.789063-1.480468-11.585937zm0 0"
  fill="#ffead3"/><path
  d="m267.046875 229.886719c-1.542969-2.257813-4.101563-3.605469-6.835937-3.605469h-76.394532c-2.824218 0-5.449218 1.4375-6.972656 3.816406s-1.730469 5.367188-.546875 7.929688l41.410156 89.882812c1.351563 2.941406 4.292969 4.816406 7.519531 4.816406.082032 0 .167969 0 .25-.003906 3.324219-.101562 6.261719-2.175781 7.46875-5.273437l34.984376-89.882813c.988281-2.546875.660156-5.421875-.882813-7.679687zm0 0"
  fill="#a5a3b6"/><path
  d="m288.953125 318.492188-92.953125-89.882813c-1.546875-1.492187-3.609375-2.328125-5.757812-2.328125h-22.988282c-.214844 0-.433594.007812-.644531.023438-5.195313.128906-10.113281 1.832031-14.257813 4.945312l-51.074218 38.304688-36.226563-28.179688-29.078125 40.335938 49.777344 38.714843c8.820312 6.859375 21.21875 6.96875 30.160156.265625l43.0625-32.300781v70.394531c0 4.574219 3.707032 8.28125 8.28125 8.28125h115.941406c4.574219 0 8.28125-3.707031 8.28125-8.28125v-34.339844c0-2.246093-.910156-4.394531-2.523437-5.953124zm0 0"
  fill="#565275"/><path
  d="m443.59375 227.589844c-8.40625-10.8125-24.046875-12.769532-34.863281-4.355469l-39.023438 30.351563c-1.800781 1.398437-2.945312 3.476562-3.160156 5.746093-.21875 2.269531.507813 4.527344 2.011719 6.242188l21.847656 24.972656c1.632812 1.867187 3.925781 2.828125 6.238281 2.828125 1.78125 0 3.570313-.570312 5.078125-1.742188l37.511719-29.175781c10.8125-8.410156 12.769531-24.050781 4.359375-34.867187zm0 0"
  fill="#ffead3"/><path
  d="m384.347656 242.195312-35.171875 27.355469-51.070312-38.300781c-4.152344-3.113281-9.066407-4.816406-14.257813-4.945312-.214844-.015626-.433594-.023438-.652344-.023438h-33.125c-2.332031 0-4.558593.984375-6.128906 2.710938l-82.816406 91.097656c-1.382812 1.523437-2.152344 3.507812-2.152344 5.570312v32.304688l-8.121094 40.605468c-.484374 2.429688.144532 4.953126 1.71875 6.875 1.570313 1.917969 3.921876 3.027344 6.402344 3.027344h132.503906c2.480469 0 4.832032-1.109375 6.40625-3.027344 1.574219-1.921874 2.203126-4.445312 1.714844-6.875l-8.121094-40.605468v-69.574219l43.066407 32.300781c8.9375 6.703125 21.339843 6.59375 30.160156-.265625l50.027344-38.910156zm0 0"
  fill="#615d7e"/><path
  d="m299.761719 367.066406h-149.070313c-4.574218 0-8.28125-3.707031-8.28125-8.28125 0-4.574218 3.707032-8.28125 8.28125-8.28125h149.070313c4.570312 0 8.28125 3.707032 8.28125 8.28125 0 4.574219-3.710938 8.28125-8.28125 8.28125zm0 0"
  fill="#8e8ca3"/><path
  d="m248.890625 379.367188-14.003906-23.34375 5.722656-9.539063c2.351563-3.921875 1.082031-9.011719-2.839844-11.363281-3.925781-2.355469-9.011719-1.082032-11.363281 2.839844l-1.179688 1.964843-1.179687-1.964843c-2.355469-3.921876-7.441406-5.191407-11.363281-2.839844-3.921875 2.351562-5.195313 7.441406-2.839844 11.363281l5.722656 9.539063-14.007812 23.34375c-2.351563 3.925781-1.078125 9.011718 2.84375 11.363281 1.332031.800781 2.800781 1.183593 4.25 1.183593 2.816406 0 5.558594-1.433593 7.109375-4.023437l9.464843-15.769531 9.460938 15.769531c1.554688 2.589844 4.296875 4.023437 7.109375 4.023437 1.449219 0 2.917969-.382812 4.25-1.183593 3.925781-2.351563 5.195313-7.4375 2.84375-11.363281zm0 0"
  fill="#bbbac8"/><path d="m27.988281 201.421875 21.980469 11.585937-27.035156 51.28125c-2.128906 4.046876-7.140625 5.597657-11.1875 3.464844l-7.324219-3.863281c-4.046875-2.132813-5.597656-7.140625-3.464844-11.1875zm0 0" fill="#c86171"/><path d="m135.222656 2.566406 24.734375-2.5546872c1.652344-.1718748 2.820313 1.5703122 2.042969 3.0351562l-112.03125 209.960937-21.980469-11.585937 105.621094-197.773437c.324219-.605469.929687-1.011719 1.613281-1.082032zm0 0" fill="#f4f3f6"/><path
  d="m64.613281 229.011719c-1.304687 0-2.625-.308594-3.855469-.957031l-51.28125-27.03125c-4.046874-2.132813-5.597656-7.140626-3.464843-11.1875 2.132812-4.046876 7.144531-5.59375 11.1875-3.464844l51.28125 27.03125c4.046875 2.132812 5.597656 7.140625 3.464843 11.1875-1.484374 2.816406-4.359374 4.421875-7.332031 4.421875zm0 0"
  fill="#ffe572"/><path d="m422.464844 201.421875-21.980469 11.585937 27.03125 51.28125c2.132813 4.046876 7.144531 5.597657 11.1875 3.464844l7.328125-3.863281c4.046875-2.132813 5.597656-7.140625 3.464844-11.1875zm0 0" fill="#c86171"/><path d="m315.226562 2.566406-24.734374-2.5546872c-1.648438-.1718748-2.820313 1.5703122-2.039063 3.0351562l112.03125 209.960937 21.976563-11.585937-105.621094-197.773437c-.320313-.605469-.925782-1.011719-1.613282-1.082032zm0 0" fill="#f4f3f6"/><path
  d="m385.839844 229.011719c-2.972656 0-5.847656-1.605469-7.332032-4.421875-2.132812-4.046875-.582031-9.054688 3.464844-11.1875l51.28125-27.03125c4.046875-2.132813 9.054688-.582032 11.1875 3.464844 2.136719 4.046874.582032 9.054687-3.464844 11.1875l-51.28125 27.03125c-1.230468.648437-2.554687.957031-3.855468.957031zm0 0"
  fill="#ffe572"/></svg>
